<?xml version="1.0" standalone="no"?>
<!DOCTYPE svg PUBLIC "-//W3C//DTD SVG 20010904//EN"
 "http://www.w3.org/TR/2001/REC-SVG-20010904/DTD/svg10.dtd">
<svg version="1.0" xmlns="http://www.w3.org/2000/svg"
 width="384.000000pt" height="288.000000pt" viewBox="0 0 384.000000 288.000000"
 preserveAspectRatio="xMidYMid meet">

<g transform="translate(0.000000,288.000000) scale(0.100000,-0.100000)"
fill="#000000" stroke="none">
<path d="M955 2650 c-49 -21 -145 -138 -193 -235 -34 -69 -66 -164 -59 -171 5
-5 47 81 47 96 0 4 7 13 15 20 9 7 14 19 11 27 -3 8 -1 11 4 8 6 -3 10 3 10
14 0 11 8 25 19 30 10 6 24 24 31 41 7 16 19 30 26 30 8 0 14 4 14 9 0 4 25
35 55 67 66 71 71 86 20 64z"/>
<path d="M1203 2631 c-163 -56 -311 -296 -338 -546 -7 -64 14 -232 41 -340 53
-205 118 -366 182 -444 33 -40 36 -51 48 -155 7 -61 13 -128 14 -149 0 -34 -2
-37 -22 -32 -13 3 -81 -1 -153 -10 -71 -9 -168 -20 -215 -25 -82 -9 -149 -24
-309 -68 -74 -21 -108 -40 -83 -49 6 -3 12 -14 12 -24 0 -26 94 -69 149 -69
22 0 41 -5 44 -12 4 -10 7 -10 18 0 7 6 18 12 24 12 5 0 4 -4 -3 -9 -9 -5 4
-11 38 -15 28 -4 48 -11 45 -16 -3 -6 1 -7 10 -4 8 4 21 2 28 -4 6 -5 19 -10
27 -10 8 0 38 -8 65 -17 93 -30 114 -36 137 -40 26 -5 89 -30 130 -51 14 -8
37 -14 50 -14 12 0 46 -11 74 -24 50 -23 112 -42 127 -38 4 1 7 -2 7 -7 0 -5
23 -14 50 -21 28 -7 53 -16 56 -21 3 -5 16 -9 30 -9 13 0 33 -9 44 -20 11 -11
29 -20 39 -20 11 0 23 -5 26 -10 3 -6 15 -10 26 -10 10 0 19 -6 19 -12 0 -10
3 -9 9 1 6 9 11 10 15 2 4 -6 16 -11 26 -11 10 0 23 -6 27 -13 4 -6 13 -12 18
-12 13 0 273 -61 392 -91 15 -4 40 7 85 39 35 24 149 93 253 152 105 60 228
134 275 165 47 31 100 65 119 75 33 16 34 16 27 -1 -5 -11 -10 -45 -13 -76 -6
-63 5 -88 40 -88 25 0 97 73 147 151 l37 58 10 -32 c18 -65 75 -42 123 50 14
26 26 50 27 52 1 2 11 -7 22 -20 l19 -24 29 21 c15 11 34 38 41 60 30 86 27
338 -4 368 -7 8 -22 12 -33 9 -10 -3 -22 0 -25 6 -11 17 -36 13 -36 -5 0 -15
-9 -16 -72 -11 -165 14 -328 107 -328 186 0 49 59 111 153 162 45 24 62 28 70
19 14 -14 -3 -29 -75 -66 -55 -28 -101 -83 -96 -116 4 -32 76 -82 155 -109 50
-17 92 -23 160 -23 50 -1 94 2 98 6 11 11 -59 146 -115 223 -132 180 -343 351
-586 473 -71 36 -209 84 -321 112 -24 6 -43 13 -43 15 0 13 75 53 84 46 6 -5
36 -11 67 -13 60 -3 124 22 134 53 3 8 15 26 28 40 20 21 22 33 22 134 0 88
-4 118 -19 149 -46 93 -154 159 -260 158 -112 0 -184 -48 -208 -137 -11 -41
-13 -43 -32 -29 -11 8 -30 14 -42 14 -27 0 -73 -36 -84 -66 -11 -27 3 -73 26
-91 14 -10 12 -18 -14 -62 l-29 -51 -41 58 c-103 147 -372 345 -512 376 -88
20 -122 20 -187 -3z m117 -88 c-1 -5 -53 -34 -118 -65 -64 -32 -128 -65 -142
-75 l-25 -17 20 21 c20 21 60 45 183 109 66 35 82 40 82 27z m210 -78 c7 -8
19 -15 26 -15 8 0 14 -4 14 -10 0 -12 -6 -13 -28 -1 -11 6 -37 5 -72 -4 -65
-15 -191 -62 -204 -75 -6 -6 -20 -10 -32 -10 -13 0 -25 -4 -28 -8 -3 -5 -35
-26 -71 -47 -36 -21 -65 -42 -65 -46 0 -3 -16 -14 -35 -23 -19 -9 -35 -21 -35
-26 0 -31 159 21 258 83 69 45 78 59 30 50 -25 -4 -30 -3 -22 6 6 6 27 14 47
18 28 4 38 2 43 -10 7 -20 -47 -75 -101 -102 -22 -11 -45 -26 -51 -34 -6 -8
-20 -15 -30 -16 -21 -2 -51 -12 -75 -25 -34 -18 -103 -22 -123 -7 -19 14 -19
15 3 46 45 63 253 189 389 234 40 14 76 27 79 31 12 12 71 6 83 -9z m837 -160
c43 -25 46 -36 17 -79 -24 -34 -26 -35 -42 -19 -16 16 -17 16 -20 -1 -2 -9 1
-23 8 -31 9 -10 4 -19 -22 -38 -50 -37 -73 -47 -112 -47 -41 0 -83 38 -93 83
-3 15 -10 30 -14 33 -16 10 -9 -56 10 -94 10 -20 22 -57 25 -82 8 -48 64 -172
76 -165 3 2 -6 43 -22 91 -16 47 -28 87 -26 89 2 1 19 0 38 -2 l35 -5 3 -87
c3 -92 -12 -146 -58 -204 -41 -52 -144 -27 -189 46 -54 88 -79 250 -47 307 8
14 24 44 35 68 25 53 98 149 174 229 l59 62 67 -68 c36 -37 80 -76 98 -86z
m-803 41 c-26 -33 -84 -76 -102 -76 -3 0 15 21 40 48 26 26 52 61 59 77 11 29
11 29 21 8 8 -17 5 -28 -18 -57z m526 66 c0 -18 -69 -74 -85 -69 -27 11 -30
39 -6 59 23 18 91 26 91 10z m-840 -87 c0 -2 -10 -10 -22 -16 -21 -11 -22 -11
-9 4 13 16 31 23 31 12z m148 -78 c19 0 27 -4 20 -8 -9 -6 -9 -11 1 -23 23
-28 41 -110 61 -276 11 -91 23 -188 26 -216 l6 -50 -39 -12 c-22 -7 -43 -12
-46 -12 -4 0 -18 22 -32 49 -20 41 -22 50 -10 55 21 8 18 32 -5 49 -11 8 -22
27 -24 43 -2 16 -14 56 -26 89 -12 33 -26 89 -32 125 -6 36 -12 66 -13 68 -1
1 -37 -13 -79 -32 -42 -19 -76 -32 -76 -29 0 3 -8 -1 -17 -9 -22 -19 -72 -34
-140 -42 -61 -8 -74 9 -15 20 59 11 170 53 255 97 72 37 78 42 72 65 -9 35 21
66 55 57 14 -4 40 -8 58 -8z m380 -305 c2 -8 -2 -10 -12 -6 -21 8 -82 -34
-146 -101 -27 -30 -50 -52 -50 -49 0 16 34 64 67 96 70 67 130 93 141 60z
m702 13 c0 -9 -153 -106 -158 -100 -8 8 16 30 74 70 43 30 84 44 84 30z m144
-51 c28 -11 17 -20 -44 -39 -34 -10 -63 -22 -66 -27 -10 -16 35 -7 90 18 45
20 62 24 84 16 27 -9 26 -9 -18 -21 -102 -27 -100 -38 3 -21 56 9 87 6 87 -9
0 -16 -87 -33 -165 -33 -93 0 -135 13 -135 41 0 21 18 35 85 63 45 19 56 21
79 12z m-1489 -120 c88 -15 169 -28 180 -30 15 -2 37 -42 93 -176 40 -95 76
-180 79 -188 4 -8 -5 -5 -20 9 -40 36 -57 23 -57 -44 0 -30 -4 -55 -10 -55
-11 0 -49 56 -76 114 -32 67 -47 59 -39 -22 11 -110 -10 -105 -75 16 -50 93
-65 94 -57 4 3 -41 2 -74 -4 -77 -5 -4 -9 3 -9 14 0 25 -15 27 -28 5 -8 -14
-12 -12 -29 12 -24 33 -77 175 -122 320 -38 124 -39 139 -8 130 12 -4 94 -18
182 -32z m681 -5 c14 -23 7 -107 -15 -169 -27 -76 -98 -177 -114 -161 -7 7 -1
21 21 45 44 50 79 114 92 168 31 123 -32 131 -167 22 -44 -36 -66 -31 -40 9
23 36 136 97 179 97 20 0 40 -5 44 -11z m-270 -35 c-10 -14 -20 -23 -23 -20
-3 3 2 17 11 32 10 14 20 23 23 20 3 -3 -2 -17 -11 -32z m1354 -47 c0 -24
-143 -73 -242 -82 -32 -3 -58 -2 -58 3 0 8 51 26 190 65 103 30 110 30 110 14z
m-1349 -95 c-12 -23 -91 -38 -103 -19 -9 15 11 39 27 33 7 -2 18 1 24 7 9 9
14 9 20 -1 6 -10 11 -9 22 4 16 20 24 2 10 -24z m107 21 c4 -15 -73 -93 -93
-93 -7 0 -18 -6 -24 -14 -17 -21 -49 -26 -62 -10 -9 11 -3 18 32 33 24 11 59
38 78 61 32 40 60 49 69 23z m782 7 c0 -5 -4 -10 -10 -10 -5 0 -10 5 -10 10 0
6 5 10 10 10 6 0 10 -4 10 -10z m56 -55 c16 -13 17 -16 4 -25 -16 -10 -60 -14
-60 -4 0 11 21 44 28 44 5 0 17 -7 28 -15z m70 -69 c16 -12 16 -15 4 -19 -70
-23 -85 -27 -96 -27 -8 0 -14 9 -14 20 0 18 20 26 53 21 4 0 7 4 7 9 0 14 23
12 46 -4z m-1006 -65 c0 -18 -33 -35 -44 -23 -12 11 -6 32 9 32 8 0 15 5 15
11 0 5 5 7 10 4 6 -3 10 -14 10 -24z m825 -2 c-11 -5 -31 -13 -45 -19 -63 -26
-228 -148 -285 -211 -56 -62 -98 -129 -83 -133 97 -31 145 -48 156 -55 10 -6
14 -58 17 -217 3 -197 9 -264 24 -264 3 0 7 28 8 62 1 35 4 90 8 123 4 33 8
107 9 165 l2 104 109 43 c151 59 425 194 425 210 0 14 38 18 55 5 17 -11 90
-139 141 -245 46 -95 47 -99 34 -140 -29 -98 -51 -146 -65 -141 -7 3 -71 -30
-142 -74 -70 -44 -182 -109 -248 -144 -136 -74 -251 -145 -312 -194 l-42 -34
-88 39 c-223 98 -312 145 -508 268 -44 27 -129 76 -190 107 -60 32 -116 64
-124 71 -17 17 -25 60 -51 285 -20 170 -20 311 -1 310 3 0 18 -21 33 -46 15
-24 35 -47 44 -51 26 -10 48 11 54 48 l5 34 28 -42 c49 -77 87 -76 87 4 0 24
2 43 5 43 2 0 28 -18 57 -40 29 -22 94 -61 143 -86 50 -25 104 -54 120 -64 17
-10 63 -29 102 -44 l73 -25 39 57 c97 142 305 302 391 301 29 0 32 -2 15 -10z
m245 -10 c0 -12 -15 -20 -52 -28 -75 -17 -90 -18 -95 -4 -5 13 27 29 73 37 15
3 29 7 31 10 11 11 43 0 43 -15z m587 -36 l27 -28 -24 -5 c-19 -4 -25 -11 -25
-30 0 -22 -5 -25 -42 -28 -56 -4 -133 29 -133 57 0 31 61 58 132 60 28 1 44
-6 65 -26z m-1645 -18 c4 -5 8 -20 8 -33 0 -22 -1 -22 -25 -6 -29 19 -35 56
-7 52 9 -2 20 -7 24 -13z m1128 -10 c15 -18 17 -18 -167 -62 -18 -4 -23 -1
-23 14 0 14 16 23 73 40 90 26 102 27 117 8z m-305 -65 c3 -5 -15 -19 -41 -31
-57 -29 -64 -39 -25 -39 27 0 31 -3 31 -27 -1 -51 -145 -137 -189 -113 -51 27
-1 106 117 185 59 40 93 48 107 25z m359 4 c3 -9 4 -19 1 -24 -7 -12 -184 -52
-202 -46 -27 11 -8 29 46 42 29 8 59 21 67 29 21 20 80 20 88 -1z m596 -277
c0 -128 -8 -172 -37 -216 l-18 -26 -5 55 c-7 79 -30 79 -60 1 -22 -60 -69
-141 -81 -141 -3 0 -2 23 4 50 11 56 -1 100 -28 100 -8 0 -27 -24 -41 -52 -47
-95 -102 -182 -136 -218 -31 -32 -33 -33 -36 -13 -2 12 12 72 31 135 19 62 38
126 42 143 9 39 21 53 62 70 83 35 218 137 258 195 15 22 32 40 36 40 5 0 9
-55 9 -123z"/>
<path d="M2188 2274 c-11 -11 -10 -42 2 -49 16 -10 50 5 50 21 0 11 -6 13 -19
9 -13 -4 -20 -1 -23 10 -2 9 -6 13 -10 9z"/>
<path d="M2284 2226 c-3 -13 -14 -26 -25 -29 -25 -7 -26 -47 0 -47 24 0 39 19
47 57 7 37 -13 55 -22 19z"/>
<path d="M2200 2126 c0 -10 9 -16 21 -16 24 0 21 23 -4 28 -10 2 -17 -3 -17
-12z"/>
<path d="M3080 1361 c0 -10 24 -21 44 -21 7 0 13 7 13 15 0 10 -10 15 -29 15
-15 0 -28 -4 -28 -9z"/>
<path d="M2297 1189 c-9 -6 -17 -7 -17 -4 0 9 -55 -22 -69 -39 -31 -37 62 -2
108 40 10 10 -6 12 -22 3z"/>
<path d="M690 2214 c0 -8 5 -12 10 -9 6 4 8 11 5 16 -9 14 -15 11 -15 -7z"/>
<path d="M3030 1938 c0 -7 14 -26 31 -42 38 -39 260 -387 299 -469 47 -101 77
-179 89 -232 30 -135 29 -133 30 -99 1 36 -34 211 -51 251 -6 15 -10 32 -10
36 1 4 -6 27 -16 50 -10 23 -27 62 -37 87 -43 104 -198 337 -268 403 -30 28
-67 36 -67 15z"/>
</g>
</svg>
