<?xml version="1.0" standalone="no"?>
<!DOCTYPE svg PUBLIC "-//W3C//DTD SVG 20010904//EN"
 "http://www.w3.org/TR/2001/REC-SVG-20010904/DTD/svg10.dtd">
<svg version="1.0" xmlns="http://www.w3.org/2000/svg"
 width="640.000000pt" height="480.000000pt" viewBox="0 0 640.000000 480.000000"
 preserveAspectRatio="xMidYMid meet">

<g transform="translate(0.000000,480.000000) scale(0.100000,-0.100000)"
fill="#000" stroke="none">
<path d="M3187 4773 c-17 -13 -38 -23 -47 -23 -34 0 -40 -21 -34 -109 4 -54
11 -90 20 -97 10 -8 12 -22 6 -54 -7 -43 -12 -48 -64 -69 -38 -14 -36 -47 4
-88 30 -31 31 -36 33 -125 3 -139 4 -140 134 -142 75 -2 86 -4 99 -24 14 -21
13 -23 -44 -48 -33 -14 -84 -30 -115 -34 -31 -5 -70 -15 -86 -23 -49 -26 -111
-97 -164 -189 -28 -48 -63 -100 -80 -115 -16 -15 -29 -32 -29 -37 0 -5 -48
-56 -108 -115 -169 -167 -253 -295 -267 -406 -12 -98 31 -129 141 -102 37 10
69 15 72 13 2 -3 -7 -26 -22 -52 -35 -63 -34 -81 7 -89 44 -10 190 -65 202
-78 13 -13 -34 -2 -100 23 -113 42 -897 255 -981 266 -69 9 -189 -13 -242 -43
-24 -14 -84 -71 -135 -126 -51 -56 -130 -142 -177 -191 -185 -197 -340 -402
-485 -646 -69 -116 -99 -175 -100 -199 0 -26 -9 -41 -35 -63 -41 -33 -211
-118 -320 -158 -215 -79 -287 -141 -265 -227 8 -33 85 -110 119 -119 14 -3 78
12 167 40 79 26 182 51 229 56 173 21 211 29 248 47 43 22 78 82 87 152 11 75
25 121 38 121 7 0 39 42 72 93 71 109 145 189 263 289 48 40 117 101 155 135
37 35 71 63 75 63 4 0 22 -65 40 -144 32 -142 163 -586 224 -761 79 -226 162
-390 206 -406 5 -2 12 -34 16 -70 l6 -66 -127 -85 c-71 -47 -164 -105 -208
-129 -44 -24 -97 -59 -118 -78 -33 -29 -38 -39 -35 -70 3 -34 6 -36 43 -42 22
-3 61 -12 88 -20 39 -11 53 -11 80 0 112 46 277 94 381 112 191 34 232 64 230
174 -1 64 -22 140 -60 217 -20 39 -22 51 -13 77 9 24 7 47 -5 99 -8 37 -23
108 -31 157 -9 50 -23 115 -31 145 -15 55 -77 520 -71 526 2 2 26 -5 53 -15
27 -11 63 -23 79 -28 l30 -8 12 -140 c34 -387 91 -762 149 -973 43 -156 59
-182 114 -182 64 0 66 6 41 218 -12 103 -26 237 -31 297 -13 148 -11 568 3
680 l12 90 230 6 c127 4 257 10 289 14 56 8 59 7 52 -11 -14 -36 -28 -310 -22
-419 9 -162 24 -234 53 -263 22 -22 26 -23 40 -9 9 9 19 48 24 98 5 46 22 158
39 249 16 91 34 214 39 274 5 60 13 112 18 117 4 4 40 19 78 32 100 36 141 54
159 73 10 9 18 15 20 13 2 -2 -7 -87 -20 -189 -32 -247 -40 -494 -25 -769 14
-249 33 -351 75 -406 22 -28 34 -35 61 -35 57 0 58 10 61 350 3 373 16 594 55
900 39 308 68 486 133 820 30 151 60 311 66 355 7 44 18 86 25 93 14 16 126
-12 245 -61 67 -28 86 -31 180 -31 99 -1 183 17 214 44 13 13 16 119 4 180
-13 71 -48 143 -99 205 -22 28 -71 93 -108 145 -106 148 -339 423 -380 447
-66 42 -229 24 -351 -37 -19 -10 -45 -21 -57 -24 -21 -7 -23 -4 -23 26 0 18
-4 48 -9 66 -11 37 -6 39 29 12 41 -32 76 -26 104 19 17 26 34 40 55 44 34 7
57 42 67 104 5 31 3 41 -9 46 -9 3 -21 -1 -27 -9 -17 -20 -25 -18 -55 12 -24
24 -25 29 -14 61 18 57 7 128 -29 172 -17 21 -37 54 -45 73 -8 20 -24 39 -35
42 -11 4 -23 17 -26 30 -4 15 -18 28 -38 36 -18 6 -49 19 -68 28 -26 12 -68
16 -164 17 -118 0 -131 -1 -159 -22z m41 -178 c120 -72 127 -78 130 -122 5
-65 22 -72 93 -38 45 22 64 27 76 19 30 -19 25 -31 -27 -63 -53 -33 -61 -47
-31 -59 40 -15 68 -64 70 -122 2 -63 26 -163 48 -201 14 -23 13 -29 -7 -69
-28 -54 -87 -135 -130 -178 -39 -39 -89 -46 -119 -17 -22 21 5 189 36 226 27
32 28 42 6 113 l-17 55 -80 -6 c-98 -6 -136 5 -136 42 0 21 5 25 29 25 43 0
61 10 61 32 0 14 -5 18 -17 14 -73 -21 -73 -21 -73 22 0 29 -7 49 -27 72 -20
25 -23 34 -13 40 7 4 19 6 26 3 9 -3 18 14 29 51 19 65 32 69 110 36 55 -24
55 -24 55 -7 0 27 -48 59 -94 64 l-46 6 0 44 c0 25 3 43 8 41 4 -2 22 -12 40
-23z m777 -584 c24 -11 68 -49 110 -97 38 -43 72 -81 75 -84 14 -13 50 -64 50
-70 0 -5 -32 -18 -70 -29 -52 -16 -81 -32 -108 -59 -36 -36 -39 -37 -63 -23
-55 31 -109 -18 -140 -129 -17 -62 -23 -66 -49 -33 -21 26 -22 35 -17 130 5
96 5 104 -14 114 -42 22 -171 -17 -268 -82 -50 -33 -64 -38 -80 -29 -19 10
-16 15 42 73 63 64 157 215 157 254 0 32 24 45 123 64 123 23 202 23 252 0z
m-728 -178 c-1 -49 1 -100 5 -115 l8 -26 -94 5 c-93 6 -94 6 -111 -21 -13 -20
-20 -57 -25 -138 -5 -93 -9 -113 -24 -122 -42 -25 -78 -61 -96 -97 -20 -38
-37 -55 -46 -46 -3 2 5 21 17 41 18 30 20 45 14 93 -6 56 -4 62 44 157 28 54
51 105 51 112 0 32 -31 10 -65 -46 -30 -50 -40 -59 -51 -49 -21 17 -18 27 25
83 21 28 57 77 80 108 44 61 101 101 186 130 85 30 84 30 82 -69z m1137 -303
c120 -161 176 -271 176 -343 0 -55 -16 -61 -138 -54 -109 6 -129 11 -260 66
-93 39 -201 61 -299 61 -77 0 -127 10 -226 46 l-48 17 27 28 c33 35 23 52 -31
53 -47 1 -39 18 18 35 52 16 59 32 25 55 -21 15 -21 16 -3 16 58 0 102 -24
165 -89 l65 -68 214 -6 c117 -4 217 -4 222 -1 20 12 -11 38 -117 94 -128 69
-156 97 -152 149 l3 36 110 36 c61 20 116 34 122 30 7 -4 64 -76 127 -161z
m-674 80 l0 -61 -37 7 c-68 14 -142 8 -163 -11 -24 -21 -26 -58 -5 -75 13 -11
11 -15 -11 -33 -23 -17 -25 -26 -21 -61 3 -22 1 -48 -4 -58 -12 -23 -3 -58 16
-58 8 0 17 -9 20 -20 5 -14 15 -20 37 -20 29 0 29 -1 -28 -44 -33 -24 -74 -59
-92 -79 l-34 -35 -73 32 c-89 39 -101 48 -109 87 -5 24 -1 35 16 49 21 17 22
18 4 45 -10 14 -32 33 -49 40 -29 12 -30 14 -12 20 82 28 100 42 90 73 -10 33
-59 47 -117 34 -78 -18 -75 -21 -67 58 13 115 10 111 87 104 98 -9 205 -33
214 -47 4 -7 5 -19 2 -27 -3 -8 -10 -76 -14 -150 -7 -111 -6 -138 6 -150 9 -9
17 -11 24 -4 5 5 19 79 31 164 12 85 26 160 32 167 10 14 181 99 212 106 44
10 45 9 45 -53z m245 -50 c3 -5 3 -39 -1 -75 l-7 -65 -38 0 c-35 0 -39 3 -39
26 0 42 40 124 61 124 10 0 20 -4 24 -10z m-1094 -55 c-8 -22 -10 -55 -6 -88
6 -48 3 -56 -28 -102 -32 -47 -39 -51 -118 -75 -55 -17 -84 -31 -84 -40 0 -24
117 -16 202 13 71 24 72 24 79 5 11 -35 -5 -67 -44 -87 -64 -32 -387 -119
-400 -107 -11 12 11 76 46 133 20 34 91 122 157 196 66 73 135 151 153 172 25
29 36 35 44 27 9 -9 9 -21 -1 -47z m1204 -55 l29 -30 -42 0 c-40 0 -42 1 -42
30 0 18 5 30 13 30 7 0 26 -13 42 -30z m-941 -77 c-32 -13 -65 -30 -73 -38
-23 -22 3 -45 53 -45 52 0 73 -12 52 -29 -9 -8 -31 -10 -65 -5 -42 5 -52 4
-57 -10 -9 -24 5 -35 62 -51 27 -7 41 -14 32 -14 -30 -2 -30 -20 -1 -47 l28
-27 -40 6 c-154 25 -203 82 -155 182 28 58 64 83 142 99 84 18 94 9 22 -21z
m621 -220 c-23 -76 -102 -452 -135 -638 -17 -93 -33 -183 -36 -198 l-6 -29
-26 25 c-38 35 -104 68 -152 74 -40 6 -41 7 -34 37 9 48 43 118 68 146 80 88
253 415 296 561 12 38 25 69 30 69 5 0 3 -21 -5 -47z m129 28 c24 -10 24 -10
10 -63 -63 -236 -159 -761 -184 -1003 -6 -60 -22 -189 -35 -285 -39 -287 -68
-783 -58 -1000 3 -52 0 -106 -5 -120 l-9 -25 -16 31 c-9 17 -23 36 -31 43 -12
10 -16 34 -16 100 0 47 -5 165 -11 261 -14 217 -1 476 36 705 14 88 42 257 60
375 41 253 84 473 119 596 14 49 32 125 41 169 48 243 44 236 99 216z m-290
-188 c-54 -98 -114 -209 -134 -247 -50 -96 -55 -98 -137 -54 -158 85 -433 158
-592 158 -93 0 -101 2 -101 19 0 23 72 99 154 161 l59 45 86 0 c47 0 121 -4
164 -9 57 -7 84 -6 101 3 20 11 31 9 87 -20 122 -63 113 -62 160 -23 23 19 69
50 103 70 33 20 79 46 101 59 22 13 41 22 43 20 2 -2 -41 -83 -94 -182z
m-1760 -615 c138 -63 214 -92 312 -117 104 -26 329 -61 397 -61 30 0 116 -7
192 -16 84 -10 188 -14 264 -12 140 4 182 18 251 83 19 18 46 35 60 37 20 2
25 8 23 31 -1 15 1 27 5 27 19 0 144 -85 175 -120 78 -85 32 -150 -157 -220
-141 -53 -510 -89 -768 -75 l-137 7 -3 31 c-4 42 -28 48 -28 8 l0 -31 -109 0
c-106 0 -256 22 -276 41 -5 5 -19 37 -31 72 -45 127 -100 247 -119 260 -11 7
-58 30 -105 51 -95 43 -137 73 -85 62 17 -4 79 -30 139 -58z m1369 -585 c-13
-59 -32 -139 -43 -178 -10 -38 -21 -81 -23 -95 -2 -14 -5 64 -6 172 -1 197 -1
198 22 202 45 10 62 12 68 10 3 -2 -5 -52 -18 -111z m-759 20 c-5 -27 -9 -221
-8 -433 0 -300 4 -412 17 -505 30 -223 30 -221 19 -210 -21 20 -108 520 -137
785 -9 80 -27 200 -41 267 -13 67 -24 127 -24 133 0 6 35 10 91 10 l91 0 -8
-47z m-1695 -46 c35 -18 65 -37 68 -44 6 -15 -42 -172 -61 -199 -20 -29 -66
-40 -256 -64 -173 -21 -285 -47 -352 -81 l-39 -20 -33 21 c-54 33 -62 47 -41
70 10 11 22 20 27 20 5 0 71 23 146 51 267 100 368 162 407 249 21 47 33 47
134 -3z m1322 -830 l65 1 37 -108 c44 -128 48 -183 14 -204 -13 -9 -69 -20
-137 -26 -134 -12 -255 -39 -339 -75 -61 -25 -109 -30 -146 -16 -18 7 -15 10
21 29 66 34 378 219 397 236 24 22 21 61 -8 124 l-24 52 27 -7 c15 -5 57 -7
93 -6z"/>
<path d="M3190 4438 c0 -45 17 -59 26 -23 5 18 1 32 -10 43 -15 15 -16 14 -16
-20z"/>
<path d="M3429 2246 c-32 -16 -34 -34 -6 -47 30 -14 67 3 67 30 0 23 -31 32
-61 17z"/>
<path d="M2364 2186 c-8 -21 -1 -49 14 -54 8 -2 12 8 12 32 0 36 -16 49 -26
22z"/>
<path d="M2090 2151 c-13 -25 -13 -51 0 -51 15 0 50 38 50 55 0 22 -37 18 -50
-4z"/>
<path d="M3324 2137 c-9 -24 0 -52 16 -52 21 0 24 39 6 55 -13 10 -17 9 -22
-3z"/>
<path d="M2817 2102 c-21 -22 -24 -31 -15 -40 17 -17 32 -15 51 6 20 22 22 62
4 62 -7 0 -25 -13 -40 -28z"/>
<path d="M2249 2103 c-3 -50 11 -83 36 -83 21 0 24 23 8 63 -16 38 -42 50 -44
20z"/>
<path d="M2530 2107 c0 -20 30 -57 46 -57 18 0 18 20 -2 48 -16 24 -44 30 -44
9z"/>
<path d="M3200 2083 c0 -10 5 -25 10 -33 7 -12 12 -12 22 -2 9 9 10 17 2 29
-15 24 -34 28 -34 6z"/>
<path d="M2973 2064 c-9 -24 10 -68 30 -72 21 -4 22 15 1 56 -18 36 -22 39
-31 16z"/>
<path d="M2754 2036 c-9 -23 11 -66 31 -66 28 0 29 30 2 58 -24 23 -27 24 -33
8z"/>
<path d="M4124 1842 c-65 -9 -84 -25 -84 -71 0 -49 -20 -75 -69 -89 -46 -14
-60 -42 -38 -75 8 -13 12 -37 9 -59 -3 -28 0 -39 11 -44 14 -5 13 -10 -5 -42
-16 -29 -19 -46 -13 -87 5 -40 3 -55 -9 -65 -23 -18 -21 -53 2 -46 90 26 105
27 170 12 119 -26 193 -29 303 -12 199 30 302 38 311 24 20 -32 8 -36 -129
-42 -223 -10 -341 -30 -385 -65 -20 -17 -22 -26 -20 -85 3 -57 1 -66 -14 -66
-24 0 -177 42 -188 51 -5 4 -12 29 -16 54 l-7 45 36 -7 c52 -11 165 -10 171 2
6 12 -124 50 -201 60 -40 5 -59 3 -74 -8 -21 -16 -19 -24 26 -94 19 -30 19
-34 5 -55 -9 -12 -16 -32 -16 -44 0 -15 -8 -24 -26 -28 -24 -6 -26 -10 -20
-46 5 -32 2 -44 -14 -60 -52 -52 -16 -83 147 -129 123 -35 134 -36 283 -35
154 0 286 12 450 39 47 7 117 18 155 24 50 7 75 16 87 31 21 26 32 108 19 142
-12 33 -55 74 -102 98 -39 20 -49 36 -49 76 0 37 -30 103 -50 109 -20 6 -33
32 -24 46 3 5 20 9 39 9 19 0 46 5 60 12 23 10 25 17 25 69 0 47 -5 63 -26 88
-15 18 -39 33 -59 37 -49 9 -389 -23 -472 -45 -54 -14 -73 -16 -73 -7 0 21
330 76 460 76 85 0 155 33 101 47 -13 3 -20 16 -23 41 -3 21 -8 44 -12 53 -5
12 4 18 43 28 59 15 90 44 75 69 -19 29 -75 41 -204 42 -69 1 -147 5 -175 10
-68 13 -328 20 -391 12z m457 -62 c11 -6 19 -21 19 -36 0 -22 -4 -25 -22 -21
-26 6 -256 17 -418 20 -101 2 -105 3 -108 25 l-3 22 256 0 c158 0 264 -4 276
-10z m247 -8 c7 -5 -26 -15 -83 -26 -53 -10 -97 -17 -99 -15 -2 2 -7 14 -10
27 -7 22 -6 22 86 22 51 0 99 -4 106 -8z m-413 -92 c-22 -4 -92 -10 -155 -13
-103 -5 -112 -4 -85 8 21 10 68 14 155 13 87 0 113 -3 85 -8z m313 -36 c15
-10 22 -24 20 -37 -3 -21 -10 -22 -118 -28 -122 -7 -261 -30 -331 -54 -23 -8
-43 -15 -44 -15 -1 0 -5 17 -8 38 -3 20 -8 44 -11 53 -6 13 14 17 141 28 81 7
166 17 188 21 70 14 139 11 163 -6z m-617 -34 c58 -11 94 -38 102 -77 5 -29
-16 -42 -38 -23 -18 15 -125 39 -174 40 -28 0 -32 3 -26 18 4 9 10 25 12 35 6
20 43 22 124 7z m104 -152 c13 -6 4 -7 -29 -3 -27 3 -81 6 -120 6 -62 2 -66 3
-31 9 46 8 150 2 180 -12z m612 -9 c7 -6 13 -28 13 -49 0 -47 -8 -50 -160 -50
-63 0 -155 -5 -205 -10 -49 -5 -118 -13 -152 -16 l-63 -7 0 37 c0 20 4 36 10
36 5 0 7 6 4 13 -4 11 29 18 142 32 285 34 382 38 411 14z m-663 -43 c32 -8
62 -20 67 -27 13 -21 11 -69 -3 -69 -10 0 -151 32 -245 56 -19 5 -15 42 5 47
36 10 119 6 176 -7z m616 -226 c6 -12 10 -35 8 -53 l-3 -32 -140 -12 c-77 -7
-176 -20 -220 -28 -44 -8 -108 -17 -142 -21 l-63 -7 0 30 c0 17 -3 44 -6 61
l-6 30 88 12 c115 17 333 37 411 39 53 1 64 -2 73 -19z m47 -147 c24 -10 43
-21 43 -24 0 -3 -48 -9 -107 -12 -119 -7 -285 -28 -436 -54 -93 -16 -100 -16
-150 2 -29 10 -56 22 -61 26 -15 14 52 11 73 -3 16 -9 42 -8 128 5 166 26 344
56 388 66 61 13 76 12 122 -6z m111 -97 c8 -66 0 -73 -90 -80 -46 -4 -101 -11
-123 -16 -22 -5 -106 -14 -188 -20 -81 -6 -179 -19 -217 -29 l-70 -17 0 47 c0
58 8 64 99 73 36 3 148 19 250 36 206 32 250 38 301 36 31 -1 35 -4 38 -30z
m-927 -6 c63 -16 125 -32 139 -36 44 -12 60 -34 60 -80 l0 -44 -52 22 c-29 11
-102 36 -163 55 -60 19 -110 35 -111 36 -2 3 8 77 11 77 1 0 53 -13 116 -30z"/>
<path d="M5183 897 c-11 -15 -53 -36 -111 -56 -100 -35 -321 -131 -359 -156
-30 -20 -31 -65 0 -92 16 -15 64 -29 182 -52 314 -60 318 -60 451 -1 95 43
162 88 178 119 8 14 15 51 17 81 3 45 1 55 -12 55 -9 0 -27 12 -40 27 -26 28
-100 59 -204 83 -84 19 -80 19 -102 -8z m146 -73 c58 -14 119 -32 136 -39 l29
-12 -154 -101 c-96 -64 -163 -102 -179 -102 -14 0 -45 9 -68 19 -37 17 -99 34
-217 58 -22 5 -41 13 -43 19 -2 5 60 36 136 68 77 33 162 72 188 87 26 16 52
29 57 29 4 0 56 -12 115 -26z m172 -142 c-6 -11 -25 -29 -43 -40 -37 -23 -97
-48 -85 -35 17 17 132 100 135 97 2 -1 -1 -11 -7 -22z"/>
<path d="M5120 780 c-21 -13 -7 -22 51 -31 61 -10 98 3 78 27 -13 16 -105 19
-129 4z"/>
</g>
</svg>
